# xmcd
#
# Track frame offsets:
#	150
#	25838
#	39978
#	49630
#	58508
#	72544
#	80699
#	94147
#	105775
#	120027
#	133715
#	143758
#	153357
#	173132
#	183836
#	200766
#	214293
#	227309
#	241665
#	254489
#
# Disc length: 3894 seconds
#
# Revision: 0
# Processed by: cddbd v1.5PL3 Copyright (c) Steve Scherf et al.
# Submitted via: EasyCDDAExtractor 4.6.9.1
#
DISCID=040f3414
DTITLE=Marty Robbins - Return Of The Gunfighter - (w-Bonus Tracks)
DYEAR=1963
DGENRE=Country
TTITLE0=San Angelo
TTITLE1=Man Walks Among Us
TTITLE2=Tall Handsome Stranger
TTITLE3=Dusty Winds
TTITLE4=The Master's Call
TTITLE5=Fastest Gun Around
TTITLE6=Old Red
TTITLE7=The Bend In The River
TTITLE8=Johnny Fedavo
TTITLE9=Abilene Rose
TTITLE10=Doggone Cowboy
TTITLE11=The Red Hill Of Utah
TTITLE12=El Paso (Bonus Track)
TTITLE13=Take Me Back To The Prairie (Bonus Track)
TTITLE14=The Alamo (Bonus Track)
TTITLE15=The Cowboy In The Continental Suit (Bonus Track)
TTITLE16=The Hanging Tree (Bonus Track)
TTITLE17=They're Hanging Me Tonight (Bonus Track)
TTITLE18=The Streets Of Laredo (Bonus Track)
TTITLE19=Faleena (Bonus Track)
EXTD=
EXTT0=
EXTT1=
EXTT2=
EXTT3=
EXTT4=
EXTT5=
EXTT6=
EXTT7=
EXTT8=
EXTT9=
EXTT10=
EXTT11=
EXTT12=
EXTT13=
EXTT14=
EXTT15=
EXTT16=
EXTT17=
EXTT18=
EXTT19=
PLAYORDER=
